<svg width="40" height="40" viewBox="0 0 40 40" fill="none" xmlns="http://www.w3.org/2000/svg">
<path d="M37.6 20.4166C37.6 19.1166 37.4833 17.8666 37.2667 16.6666H20V23.7666H29.8667C29.4333 26.05 28.1333 27.9833 26.1833 29.2833V33.9H32.1333C35.6 30.7 37.6 26 37.6 20.4166Z" fill="#4285F4"/>
<path d="M20 38.3333C24.95 38.3333 29.1 36.7 32.1334 33.9L26.1834 29.2833C24.55 30.3833 22.4667 31.05 20 31.05C15.2334 31.05 11.1834 27.8333 9.73336 23.5H3.63336V28.2333C6.65003 34.2167 12.8334 38.3333 20 38.3333Z" fill="#34A853"/>
<path d="M9.73335 23.4833C9.36669 22.3833 9.15002 21.2167 9.15002 20C9.15002 18.7833 9.36669 17.6167 9.73335 16.5167V11.7833H3.63335C2.38335 14.25 1.66669 17.0333 1.66669 20C1.66669 22.9667 2.38335 25.75 3.63335 28.2167L8.38335 24.5167L9.73335 23.4833Z" fill="#FBBC05"/>
<path d="M20 8.96663C22.7 8.96663 25.1 9.89996 27.0167 11.7L32.2667 6.44996C29.0834 3.48329 24.95 1.66663 20 1.66663C12.8334 1.66663 6.65003 5.78329 3.63336 11.7833L9.73336 16.5166C11.1834 12.1833 15.2334 8.96663 20 8.96663Z" fill="#EA4335"/>
</svg>
