<svg width="151" height="99" viewBox="0 0 151 99" fill="none" xmlns="http://www.w3.org/2000/svg">
<path d="M31.7986 92.1922C23.2683 81.3653 33.88 63.1696 50.7736 54.9511L53.0302 53.8228L63.7491 61.7209C50.5367 71.9498 56.9658 87.0087 51.4126 94.2479C46.8337 100.217 36.4545 98.1017 31.7986 92.1922Z" fill="url(#paint0_linear_76_2473)"/>
<path d="M38.1385 52.9907C33.6252 48.4774 24.0281 50.3974 26.2913 55.2473C30.2403 63.7096 33.6253 54.1191 38.1385 52.9907Z" fill="url(#paint1_linear_76_2473)"/>
<path d="M24.7478 47.5608C13.2541 51.6241 -3.66786 41.2642 3.78446 34.9594C16.7878 23.9583 16.9373 42.317 24.7478 47.5608Z" fill="url(#paint2_linear_76_2473)"/>
<path d="M30.4641 53.3913C29.6285 52.1594 27.8515 52.6835 28.2705 54.0073C29.0017 56.3171 29.6285 53.6993 30.4641 53.3913Z" fill="white"/>
<path d="M149.5 44.7963C132.576 56.0793 87.1049 71.4242 40.6189 42.5397C59.8 74.1321 123.549 79.7736 149.5 44.7963Z" fill="url(#paint3_linear_76_2473)"/>
<path d="M55.2868 58.9L51.9019 56.6434C44.6808 62.5106 42.4994 71.4994 42.3113 75.2604C45.0193 65.3314 52.09 60.2164 55.2868 58.9Z" fill="white"/>
<path d="M31 1.54762H44.5667C48.0321 1.54762 50.9776 2.71693 53.4033 5.05555C55.7944 7.39417 56.9899 10.2659 56.9899 13.6706C56.9899 17.0754 55.7944 19.9471 53.4033 22.2857C50.9776 24.6243 48.0321 25.7936 44.5667 25.7936H38.1732V37.6587H31V1.54762ZM38.1732 19.1389H44.5667C46.0915 19.1389 47.3563 18.623 48.3613 17.5912C49.3662 16.5251 49.8687 15.2182 49.8687 13.6706C49.8687 12.0886 49.3662 10.7817 48.3613 9.74998C47.3563 8.71824 46.0915 8.20237 44.5667 8.20237H38.1732V19.1389Z" fill="url(#paint4_linear_76_2473)"/>
<path d="M68.0535 37.6587H61.3481V0H68.0535V37.6587Z" fill="url(#paint5_linear_76_2473)"/>
<path d="M93.9432 14.9087V11.8651H100.649V37.6587H93.9432V34.615C91.9333 37.1256 89.109 38.3809 85.4704 38.3809C82.0051 38.3809 79.0249 37.074 76.5299 34.4603C74.0695 31.8121 72.8393 28.5793 72.8393 24.7619C72.8393 20.9788 74.0695 17.7632 76.5299 15.1151C79.0249 12.4669 82.0051 11.1428 85.4704 11.1428C89.109 11.1428 91.9333 12.3981 93.9432 14.9087ZM81.5719 30.0238C82.9234 31.365 84.6388 32.0357 86.718 32.0357C88.7972 32.0357 90.5125 31.365 91.864 30.0238C93.2501 28.6481 93.9432 26.8941 93.9432 24.7619C93.9432 22.6296 93.2501 20.8928 91.864 19.5516C90.5125 18.1759 88.7972 17.4881 86.718 17.4881C84.6388 17.4881 82.9234 18.1759 81.5719 19.5516C80.2205 20.8928 79.5447 22.6296 79.5447 24.7619C79.5447 26.8941 80.2205 28.6481 81.5719 30.0238Z" fill="url(#paint6_linear_76_2473)"/>
<path d="M121.595 11.8651V18.2619H115.722V28.992C115.722 29.8862 115.947 30.5396 116.397 30.9523C116.848 31.365 117.506 31.6058 118.372 31.6746C119.239 31.7089 120.313 31.6917 121.595 31.623V37.6587C117.056 38.1745 113.816 37.7618 111.875 36.4206C109.969 35.0449 109.016 32.5687 109.016 28.992V18.2619H104.494V11.8651H109.016V6.65475L115.722 4.64285V11.8651H121.595Z" fill="url(#paint7_linear_76_2473)"/>
<path d="M138.057 29.1984L143.827 11.8651H151L141.54 37.6587C140.188 41.373 138.386 44.0555 136.134 45.7063C133.916 47.3915 131.144 48.1481 127.817 47.9761V41.7856C129.584 41.82 131.005 41.4417 132.079 40.6507C133.154 39.8597 134.003 38.5872 134.626 36.8333L123.97 11.8651H131.3L138.057 29.1984Z" fill="url(#paint8_linear_76_2473)"/>
<defs>
<linearGradient id="paint0_linear_76_2473" x1="26.1008" y1="53.8228" x2="67.835" y2="54.4102" gradientUnits="userSpaceOnUse">
<stop stop-color="#59A7A7"/>
<stop offset="1" stop-color="#AFCD6D"/>
</linearGradient>
<linearGradient id="paint1_linear_76_2473" x1="25.0147" y1="50.4377" x2="39.5555" y2="50.8223" gradientUnits="userSpaceOnUse">
<stop stop-color="#59A7A7"/>
<stop offset="1" stop-color="#AFCD6D"/>
</linearGradient>
<linearGradient id="paint2_linear_76_2473" x1="-1.77299" y1="41.9372" x2="26.0894" y2="51.9962" gradientUnits="userSpaceOnUse">
<stop stop-color="#59A7A7"/>
<stop offset="1" stop-color="#AFCD6D"/>
</linearGradient>
<linearGradient id="paint3_linear_76_2473" x1="32.2551" y1="42.5397" x2="161.531" y2="52.1857" gradientUnits="userSpaceOnUse">
<stop stop-color="#59A7A7"/>
<stop offset="1" stop-color="#AFCD6D"/>
</linearGradient>
<linearGradient id="paint4_linear_76_2473" x1="21.7821" y1="2.49033e-05" x2="164.765" y2="6.41308" gradientUnits="userSpaceOnUse">
<stop stop-color="#59A7A7"/>
<stop offset="1" stop-color="#AFCD6D"/>
</linearGradient>
<linearGradient id="paint5_linear_76_2473" x1="21.7821" y1="2.49033e-05" x2="164.765" y2="6.41308" gradientUnits="userSpaceOnUse">
<stop stop-color="#59A7A7"/>
<stop offset="1" stop-color="#AFCD6D"/>
</linearGradient>
<linearGradient id="paint6_linear_76_2473" x1="21.7821" y1="2.49033e-05" x2="164.765" y2="6.41308" gradientUnits="userSpaceOnUse">
<stop stop-color="#59A7A7"/>
<stop offset="1" stop-color="#AFCD6D"/>
</linearGradient>
<linearGradient id="paint7_linear_76_2473" x1="21.7821" y1="2.49033e-05" x2="164.765" y2="6.41308" gradientUnits="userSpaceOnUse">
<stop stop-color="#59A7A7"/>
<stop offset="1" stop-color="#AFCD6D"/>
</linearGradient>
<linearGradient id="paint8_linear_76_2473" x1="21.7821" y1="2.49033e-05" x2="164.765" y2="6.41308" gradientUnits="userSpaceOnUse">
<stop stop-color="#59A7A7"/>
<stop offset="1" stop-color="#AFCD6D"/>
</linearGradient>
</defs>
</svg>
